<svg width="166" height="91" viewBox="0 0 166 91" fill="none" xmlns="http://www.w3.org/2000/svg">
  <path
    d="M115.864 28.7173C118.79 48.9962 105.729 61.6863 89.5277 61.6863C72.3994 61.6863 58.5095 49.162 58.5095 31.0193C58.5095 12.8766 72.653 0.3523 89.5277 0.3523C95.486 0.254419 101.349 1.85468 106.432 4.96601L101.008 16.4076C97.8797 14.2776 94.1704 13.1638 90.3859 13.218C79.9002 13.218 72.8285 20.7092 72.8285 31.0193C72.8285 41.3294 79.6565 48.8206 89.5277 48.8206C96.775 48.8206 101.467 46.6064 103.252 40.3052H89.9763L95.5166 28.7173H115.864ZM166 36.5694V48.5962H159.416V61.6863H145.263V48.5962H119.17V36.5694L145.263 0.205994H159.416V36.5694H166ZM133.665 36.5694H145.263V19.09L133.665 36.5694Z"
    fill="#233140" />
  <path
    d="M12.5377 82.5309V85.4572H0.335266V69.7043H12.245V72.6305H3.96378V76.0444H11.2696V78.8829H3.96378V82.5309H12.5377Z"
    fill="#233140" />
  <path
    d="M19.9406 69.7042H27.0905C28.6579 69.6699 30.2113 70.004 31.626 70.6796C32.8905 71.2871 33.9538 72.2453 34.689 73.44C35.4055 74.7024 35.782 76.1291 35.782 77.5807C35.782 79.0322 35.4055 80.4589 34.689 81.7213C33.9532 82.9132 32.8898 83.8681 31.626 84.4719C30.2113 85.1475 28.6579 85.4816 27.0905 85.4474H19.9406V69.7042ZM26.915 82.4626C28.2938 82.5321 29.645 82.0595 30.6799 81.1458C31.5887 80.1812 32.0949 78.9059 32.0949 77.5807C32.0949 76.2554 31.5887 74.9801 30.6799 74.0155C29.645 73.1018 28.2938 72.6292 26.915 72.6987H23.5789V82.4529L26.915 82.4626Z"
    fill="#233140" />
  <path
    d="M44.7743 83.8575C44.1154 83.142 43.6088 82.3002 43.2852 81.383C42.9616 80.4658 42.8278 79.4925 42.8918 78.522V69.7433H46.5398V78.4244C46.5398 81.2531 47.7104 82.6577 50.0514 82.6577C50.5343 82.6905 51.0184 82.6157 51.4688 82.4385C51.9192 82.2614 52.3245 81.9865 52.6557 81.6335C53.3368 80.709 53.659 79.5687 53.5627 78.4244V69.7433H57.1622V78.522C57.2239 79.4923 57.089 80.465 56.7655 81.3819C56.442 82.2987 55.9364 83.1408 55.2795 83.8575C53.7939 85.0621 51.9394 85.7194 50.0269 85.7194C48.1143 85.7194 46.2598 85.0621 44.7743 83.8575Z"
    fill="#233140" />
  <path
    d="M68.4489 84.677C67.1776 84.0026 66.1177 82.9899 65.3862 81.7507C64.6575 80.4712 64.2743 79.024 64.2743 77.5516C64.2743 76.0791 64.6575 74.632 65.3862 73.3524C66.1177 72.1133 67.1776 71.1005 68.4489 70.4262C69.7958 69.7197 71.2979 69.361 72.8187 69.3825C74.0907 69.3653 75.3527 69.611 76.5253 70.1043C77.6019 70.565 78.5545 71.2735 79.3053 72.1722L76.9642 74.3376C76.4855 73.7513 75.8811 73.2802 75.1955 72.9594C74.51 72.6386 73.7611 72.4762 73.0042 72.4843C72.0918 72.4688 71.1908 72.6907 70.3899 73.1281C69.6379 73.5465 69.0194 74.1686 68.6051 74.9228C68.1668 75.7198 67.9447 76.6177 67.9611 77.5272C67.9457 78.4396 68.1677 79.3404 68.6051 80.1413C69.02 80.8926 69.6386 81.5113 70.3899 81.9263C71.1908 82.3637 72.0918 82.5856 73.0042 82.5701C73.7621 82.5784 74.5119 82.4151 75.1977 82.0925C75.8835 81.7699 76.4874 81.2962 76.9642 80.707L79.3053 82.8627C78.5572 83.7754 77.6002 84.4947 76.5155 84.9598C75.3385 85.4489 74.0736 85.6913 72.7992 85.6719C71.2885 85.711 69.7923 85.3688 68.4489 84.677Z"
    fill="#233140" />
  <path
    d="M96.3165 82.0823H89.0009L87.6061 85.4572H83.8702L90.8932 69.7043H94.4924L101.535 85.4572H97.7113L96.3165 82.0823ZM95.1656 79.3121L92.6685 73.284L90.1714 79.3121H95.1656Z"
    fill="#233140" />
  <path
    d="M110.645 84.677C109.374 84.0026 108.314 82.9899 107.582 81.7507C106.854 80.4712 106.471 79.024 106.471 77.5516C106.471 76.0791 106.854 74.632 107.582 73.3524C108.314 72.1133 109.374 71.1005 110.645 70.4262C111.992 69.7197 113.494 69.361 115.015 69.3825C116.287 69.3653 117.549 69.611 118.722 70.1043C119.798 70.565 120.751 71.2735 121.502 72.1722L119.16 74.3376C118.682 73.7513 118.077 73.2802 117.392 72.9594C116.706 72.6386 115.957 72.4762 115.2 72.4843C114.288 72.4688 113.387 72.6907 112.586 73.1281C111.834 73.5465 111.216 74.1686 110.801 74.9228C110.363 75.7198 110.141 76.6177 110.157 77.5272C110.142 78.4396 110.364 79.3404 110.801 80.1413C111.216 80.8926 111.835 81.5113 112.586 81.9263C113.387 82.3637 114.288 82.5856 115.2 82.5701C115.958 82.5784 116.708 82.4151 117.394 82.0925C118.08 81.7699 118.684 81.2962 119.16 80.707L121.502 82.8627C120.753 83.7754 119.797 84.4947 118.712 84.9598C117.535 85.4489 116.27 85.6913 114.995 85.6719C113.485 85.711 111.989 85.3688 110.645 84.677ZM112.596 90.5294C112.254 90.4701 111.925 90.3548 111.621 90.188L112.157 88.6762C112.614 88.8951 113.113 89.0116 113.62 89.0176C114.401 89.0176 114.791 88.7737 114.791 88.2957C114.791 87.8178 114.43 87.6422 113.689 87.6422H112.928L113.513 85.2525H115.376L115.064 86.5595C115.613 86.5865 116.135 86.8078 116.537 87.1838C116.697 87.3489 116.823 87.5444 116.907 87.7588C116.99 87.9732 117.03 88.2022 117.024 88.4323C117.03 88.7596 116.949 89.0825 116.789 89.3684C116.63 89.6544 116.398 89.8934 116.117 90.0613C115.394 90.4934 114.559 90.7005 113.718 90.6563C113.354 90.6599 112.991 90.6239 112.635 90.549L112.596 90.5294Z"
    fill="#233140" />
  <path
    d="M138.513 82.0822H131.197L129.802 85.4571H126.066L133.089 69.7042H136.689L143.731 85.4571H139.907L138.513 82.0822ZM135.508 68.2508C135.169 68.059 134.843 67.8439 134.533 67.607C134.341 67.4637 134.143 67.3302 133.938 67.2071C133.801 67.1191 133.642 67.0717 133.48 67.0705C133.335 67.0638 133.191 67.0892 133.058 67.1449C132.925 67.2005 132.806 67.2851 132.709 67.3924C132.487 67.6672 132.375 68.0151 132.397 68.3678H130.622C130.605 67.5078 130.869 66.6657 131.373 65.9683C131.718 65.5491 132.193 65.2571 132.724 65.1387C133.254 65.0203 133.808 65.0823 134.299 65.3148C134.66 65.5136 135.009 65.7351 135.343 65.9781C135.532 66.1273 135.731 66.2642 135.938 66.3878C136.08 66.4722 136.241 66.5192 136.406 66.5243C136.548 66.527 136.688 66.4986 136.818 66.4414C136.948 66.3841 137.063 66.2992 137.157 66.1927C137.374 65.9487 137.489 65.6312 137.479 65.305H139.264C139.279 66.1485 139.011 66.9726 138.503 67.646C138.282 67.9301 137.998 68.1578 137.672 68.3104C137.346 68.463 136.99 68.5362 136.63 68.5239C136.239 68.5275 135.854 68.4337 135.508 68.2508ZM137.362 79.312L134.845 73.2449L132.348 79.273L137.362 79.312Z"
    fill="#233140" />
  <path
    d="M152.86 84.667C151.581 83.9956 150.514 82.9826 149.777 81.7408C149.048 80.4702 148.665 79.0309 148.665 77.566C148.665 76.1012 149.048 74.6618 149.777 73.3913C150.517 72.1514 151.583 71.1389 152.86 70.465C154.221 69.7508 155.74 69.3886 157.278 69.4116C158.813 69.3861 160.33 69.7484 161.687 70.465C162.975 71.1483 164.052 72.1694 164.804 73.4187C165.555 74.6681 165.952 76.0984 165.952 77.5563C165.952 79.0141 165.555 80.4445 164.804 81.6938C164.052 82.9431 162.975 83.9642 161.687 84.6475C160.33 85.3641 158.813 85.7265 157.278 85.701C155.742 85.7299 154.223 85.3745 152.86 84.667ZM159.805 81.9749C160.548 81.5566 161.16 80.9382 161.57 80.1899C162.007 79.389 162.229 78.4882 162.214 77.5758C162.23 76.6663 162.008 75.7685 161.57 74.9714C161.16 74.2205 160.549 73.5989 159.805 73.1767C159.031 72.7541 158.164 72.5326 157.283 72.5326C156.402 72.5326 155.535 72.7541 154.762 73.1767C154.017 73.5989 153.406 74.2205 152.996 74.9714C152.558 75.7685 152.336 76.6663 152.352 77.5758C152.337 78.4882 152.559 79.389 152.996 80.1899C153.406 80.9382 154.018 81.5566 154.762 81.9749C155.535 82.3975 156.402 82.619 157.283 82.619C158.164 82.619 159.031 82.3975 159.805 81.9749Z"
    fill="#233140" />
  <path
    d="M48.4027 31.1852L51.329 28.259L52.402 27.186C52.6165 26.9672 52.7366 26.673 52.7366 26.3667C52.7366 26.0603 52.6165 25.7661 52.402 25.5473L27.1875 0.342629C27.0804 0.234099 26.9531 0.147919 26.8124 0.0891008C26.6718 0.0302827 26.5208 0 26.3683 0C26.2159 0 26.0648 0.0302827 25.9242 0.0891008C25.7835 0.147919 25.656 0.234099 25.5489 0.342629L0.334584 25.5473C0.120118 25.7661 0 26.0603 0 26.3667C0 26.673 0.120118 26.9672 0.334584 27.186L4.38245 31.234L1.4074 34.209L0.334584 35.2819C0.120118 35.5007 0 35.7949 0 36.1013C0 36.4077 0.120118 36.7018 0.334584 36.9206L25.5977 62.0863C25.8165 62.3008 26.1107 62.4209 26.4171 62.4209C26.7235 62.4209 27.0175 62.3008 27.2363 62.0863L52.4509 36.8719C52.6653 36.6531 52.7854 36.3589 52.7854 36.0525C52.7854 35.7461 52.6653 35.452 52.4509 35.2332L48.4027 31.1852ZM3.34846 26.3081L26.4171 3.24936L49.4856 26.3081L44.6085 31.1852L26.4074 49.3864L8.206 31.1852L3.34846 26.3081ZM26.4171 59.1113L3.34846 36.0428L6.2747 33.0677L25.5977 52.3517C25.7048 52.4602 25.8323 52.5464 25.973 52.6052C26.1137 52.664 26.2647 52.6943 26.4171 52.6943C26.5696 52.6943 26.7204 52.664 26.861 52.6052C27.0017 52.5464 27.1292 52.4602 27.2363 52.3517L28.3094 51.2787L46.5105 33.0775L49.4367 36.0525L26.4171 59.1113Z"
    fill="#FA7268" />
  <path
    d="M42.4818 25.4985L41.4088 24.4256L28.27 11.2868L27.1969 10.2138C26.9781 9.99934 26.6841 9.87921 26.3778 9.87921C26.0714 9.87921 25.7771 9.99934 25.5583 10.2138L24.4855 11.2868L11.3367 24.4743L10.2639 25.5473C10.0494 25.7661 9.92932 26.0603 9.92932 26.3667C9.92932 26.673 10.0494 26.9672 10.2639 27.186L11.3367 28.259L24.4855 41.4075L25.5583 42.4805C25.7771 42.695 26.0714 42.8151 26.3778 42.8151C26.6841 42.8151 26.9781 42.695 27.1969 42.4805L28.27 41.4075L41.4088 28.259L41.526 28.1419L42.5014 27.1665C42.6107 27.0563 42.6969 26.9254 42.7552 26.7816C42.8135 26.6377 42.8425 26.4837 42.8407 26.3284C42.8389 26.1732 42.8064 26.0199 42.7447 25.8774C42.6831 25.7349 42.5937 25.6062 42.4818 25.4985ZM26.3778 39.4664L13.2292 26.3179L26.3778 13.1791L39.5165 26.3179L26.3778 39.4664Z"
    fill="#FA7268" />
  <path
    d="M32.5144 25.4984L27.1496 20.1336C26.9308 19.9192 26.6366 19.799 26.3302 19.799C26.0238 19.799 25.7296 19.9192 25.5108 20.1336L20.146 25.4984C20.0375 25.6055 19.9514 25.7331 19.8926 25.8737C19.8338 26.0144 19.8036 26.1653 19.8036 26.3178C19.8036 26.4702 19.8338 26.6212 19.8926 26.7618C19.9514 26.9025 20.0375 27.03 20.146 27.1371L25.5108 32.5116C25.7296 32.7261 26.0238 32.8462 26.3302 32.8462C26.6366 32.8462 26.9308 32.7261 27.1496 32.5116L32.5144 27.1371C32.7289 26.9183 32.849 26.6241 32.849 26.3178C32.849 26.0114 32.7289 25.7172 32.5144 25.4984ZM26.3302 29.5366L23.1113 26.3178L26.3302 23.0989L29.5491 26.3178L26.3302 29.5366Z"
    fill="#FA7268" />
</svg>
