<svg width="166" height="91" viewBox="0 0 166 91" fill="none" xmlns="http://www.w3.org/2000/svg">
<path d="M115.864 28.7174C118.79 48.9962 105.729 61.6864 89.5275 61.6864C72.3992 61.6864 58.5093 49.1621 58.5093 31.0194C58.5093 12.8767 72.6528 0.352361 89.5275 0.352361C95.4858 0.25448 101.349 1.85474 106.431 4.96607L101.008 16.4077C97.8795 14.2776 94.1702 13.1639 90.3857 13.2181C79.9 13.2181 72.8283 20.7092 72.8283 31.0194C72.8283 41.3295 79.6563 48.8207 89.5275 48.8207C96.7748 48.8207 101.467 46.6065 103.252 40.3053H89.9761L95.5164 28.7174H115.864ZM166 36.5695V48.5963H159.416V61.6864H145.262V48.5963H119.17V36.5695L145.262 0.206055H159.416V36.5695H166ZM133.665 36.5695H145.262V19.0901L133.665 36.5695V36.5695Z" fill="white"/>
<path d="M12.5379 82.5308V85.457H0.335449V69.7041H12.2452V72.6303H3.96396V76.0443H11.2698V78.8827H3.96396V82.5308H12.5379Z" fill="white"/>
<path d="M19.9404 69.7041H27.0903C28.6577 69.6698 30.2111 70.0039 31.6259 70.6795C32.8903 71.2869 33.9536 72.2451 34.6888 73.4399C35.4053 74.7023 35.7818 76.129 35.7818 77.5805C35.7818 79.0321 35.4053 80.4588 34.6888 81.7212C33.9531 82.913 32.8897 83.8679 31.6259 84.4718C30.2111 85.1474 28.6577 85.4815 27.0903 85.4472H19.9404V69.7041ZM26.9148 82.4625C28.2936 82.532 29.6448 82.0594 30.6797 81.1457C31.5885 80.1811 32.0948 78.9058 32.0948 77.5805C32.0948 76.2552 31.5885 74.98 30.6797 74.0154C29.6448 73.1017 28.2936 72.6291 26.9148 72.6986H23.5787V82.4527L26.9148 82.4625Z" fill="white"/>
<path d="M44.774 83.8574C44.1152 83.142 43.6086 82.3001 43.2849 81.3829C42.9613 80.4657 42.8275 79.4924 42.8915 78.5219V69.7432H46.5396V78.4243C46.5396 81.253 47.7102 82.6576 50.0512 82.6576C50.534 82.6904 51.0182 82.6156 51.4686 82.4385C51.919 82.2613 52.3243 81.9864 52.6554 81.6335C53.3365 80.7089 53.6588 79.5686 53.5625 78.4243V69.7432H57.162V78.5219C57.2237 79.4922 57.0887 80.4649 56.7652 81.3818C56.4417 82.2986 55.9362 83.1407 55.2792 83.8574C53.7937 85.062 51.9392 85.7194 50.0266 85.7194C48.1141 85.7194 46.2596 85.062 44.774 83.8574V83.8574Z" fill="white"/>
<path d="M68.449 84.6768C67.1778 84.0024 66.1179 82.9897 65.3863 81.7505C64.6577 80.471 64.2744 79.0238 64.2744 77.5513C64.2744 76.0789 64.6577 74.6318 65.3863 73.3522C66.1179 72.113 67.1778 71.1003 68.449 70.426C69.7959 69.7195 71.298 69.3607 72.8188 69.3823C74.0909 69.3651 75.3528 69.6108 76.5254 70.1041C77.602 70.5648 78.5546 71.2733 79.3054 72.1719L76.9643 74.3374C76.4856 73.7511 75.8812 73.28 75.1957 72.9592C74.5101 72.6384 73.7612 72.476 73.0043 72.4841C72.0919 72.4686 71.1909 72.6904 70.39 73.1279C69.6381 73.5463 69.0195 74.1684 68.6052 74.9226C68.1669 75.7196 67.9448 76.6175 67.9613 77.527C67.9458 78.4394 68.1678 79.3402 68.6052 80.1411C69.0202 80.8924 69.6388 81.5111 70.39 81.9261C71.1909 82.3635 72.0919 82.5853 73.0043 82.5699C73.7622 82.5782 74.512 82.4149 75.1978 82.0923C75.8836 81.7696 76.4875 81.296 76.9643 80.7068L79.3054 82.8625C78.5573 83.7752 77.6003 84.4945 76.5157 84.9596C75.3386 85.4487 74.0737 85.6911 72.7993 85.6717C71.2886 85.7108 69.7925 85.3686 68.449 84.6768V84.6768Z" fill="white"/>
<path d="M96.3164 82.0821H89.0008L87.606 85.457H83.8701L90.893 69.7041H94.4923L101.535 85.457H97.7112L96.3164 82.0821ZM95.1655 79.3119L92.6684 73.2839L90.1712 79.3119H95.1655Z" fill="white"/>
<path d="M110.645 84.6768C109.374 84.0024 108.314 82.9897 107.583 81.7505C106.854 80.471 106.471 79.0238 106.471 77.5513C106.471 76.0789 106.854 74.6318 107.583 73.3522C108.314 72.113 109.374 71.1003 110.645 70.426C111.992 69.7195 113.494 69.3607 115.015 69.3823C116.287 69.3651 117.549 69.6108 118.722 70.1041C119.798 70.5648 120.751 71.2733 121.502 72.1719L119.161 74.3374C118.682 73.7511 118.078 73.28 117.392 72.9592C116.706 72.6384 115.957 72.476 115.201 72.4841C114.288 72.4686 113.387 72.6904 112.586 73.1279C111.834 73.5463 111.216 74.1684 110.801 74.9226C110.363 75.7196 110.141 76.6175 110.158 77.527C110.142 78.4394 110.364 79.3402 110.801 80.1411C111.216 80.8924 111.835 81.5111 112.586 81.9261C113.387 82.3635 114.288 82.5853 115.201 82.5699C115.958 82.5782 116.708 82.4149 117.394 82.0923C118.08 81.7696 118.684 81.296 119.161 80.7068L121.502 82.8625C120.754 83.7752 119.797 84.4945 118.712 84.9596C117.535 85.4487 116.27 85.6911 114.996 85.6717C113.485 85.7108 111.989 85.3686 110.645 84.6768ZM112.596 90.5292C112.254 90.4699 111.925 90.3545 111.621 90.1878L112.157 88.676C112.614 88.8949 113.114 89.0114 113.62 89.0173C114.401 89.0173 114.791 88.7735 114.791 88.2955C114.791 87.8176 114.43 87.642 113.689 87.642H112.928L113.513 85.2522H115.376L115.064 86.5593C115.613 86.5863 116.135 86.8075 116.537 87.1836C116.697 87.3486 116.823 87.5442 116.907 87.7586C116.991 87.973 117.031 88.202 117.025 88.4321C117.03 88.7594 116.949 89.0822 116.789 89.3682C116.63 89.6542 116.398 89.8931 116.117 90.061C115.394 90.4932 114.559 90.7003 113.718 90.656C113.354 90.6597 112.991 90.6237 112.635 90.5487L112.596 90.5292Z" fill="white"/>
<path d="M138.513 82.0822H131.197L129.802 85.4571H126.066L133.089 69.7042H136.689L143.731 85.4571H139.907L138.513 82.0822ZM135.508 68.2508C135.169 68.0591 134.843 67.844 134.533 67.6071C134.341 67.4638 134.143 67.3303 133.938 67.2071C133.801 67.1191 133.642 67.0717 133.48 67.0706C133.335 67.0638 133.191 67.0892 133.058 67.1449C132.925 67.2006 132.806 67.2851 132.709 67.3925C132.487 67.6672 132.375 68.0152 132.397 68.3679H130.622C130.605 67.5078 130.869 66.6657 131.373 65.9684C131.718 65.5491 132.193 65.2571 132.724 65.1387C133.254 65.0203 133.808 65.0823 134.299 65.3148C134.66 65.5136 135.009 65.7352 135.343 65.9781C135.532 66.1273 135.731 66.2642 135.938 66.3878C136.08 66.4722 136.241 66.5192 136.406 66.5243C136.548 66.527 136.688 66.4987 136.818 66.4414C136.948 66.3841 137.063 66.2993 137.157 66.1927C137.374 65.9488 137.489 65.6312 137.479 65.3051H139.264C139.279 66.1485 139.011 66.9727 138.503 67.6461C138.282 67.9301 137.998 68.1578 137.672 68.3104C137.346 68.463 136.99 68.5362 136.63 68.5239C136.239 68.5276 135.854 68.4337 135.508 68.2508V68.2508ZM137.362 79.312L134.845 73.2449L132.348 79.273L137.362 79.312Z" fill="white"/>
<path d="M152.859 84.6669C151.581 83.9954 150.514 82.9825 149.777 81.7406C149.048 80.4701 148.665 79.0307 148.665 77.5659C148.665 76.101 149.048 74.6617 149.777 73.3911C150.516 72.1512 151.583 71.1388 152.859 70.4648C154.221 69.7506 155.74 69.3885 157.278 69.4114C158.813 69.3859 160.329 69.7483 161.687 70.4648C162.975 71.1482 164.052 72.1693 164.803 73.4186C165.555 74.6679 165.952 76.0982 165.952 77.5561C165.952 79.014 165.555 80.4443 164.803 81.6936C164.052 82.9429 162.975 83.9641 161.687 84.6474C160.329 85.364 158.813 85.7263 157.278 85.7008C155.742 85.7298 154.223 85.3744 152.859 84.6669V84.6669ZM159.804 81.9747C160.548 81.5564 161.16 80.938 161.57 80.1897C162.007 79.3888 162.229 78.488 162.214 77.5756C162.23 76.6662 162.008 75.7683 161.57 74.9713C161.16 74.2203 160.549 73.5987 159.804 73.1765C159.031 72.7539 158.164 72.5324 157.283 72.5324C156.402 72.5324 155.535 72.7539 154.761 73.1765C154.017 73.5987 153.406 74.2203 152.996 74.9713C152.558 75.7683 152.336 76.6662 152.352 77.5756C152.337 78.488 152.559 79.3888 152.996 80.1897C153.406 80.938 154.018 81.5564 154.761 81.9747C155.535 82.3973 156.402 82.6188 157.283 82.6188C158.164 82.6188 159.031 82.3973 159.804 81.9747V81.9747Z" fill="white"/>
<path d="M48.4027 31.1852L51.329 28.259L52.402 27.186C52.6165 26.9672 52.7366 26.673 52.7366 26.3667C52.7366 26.0603 52.6165 25.7661 52.402 25.5473L27.1875 0.342629C27.0804 0.234099 26.9531 0.147919 26.8124 0.0891008C26.6718 0.0302827 26.5208 0 26.3683 0C26.2159 0 26.0648 0.0302827 25.9242 0.0891008C25.7835 0.147919 25.656 0.234099 25.5489 0.342629L0.334584 25.5473C0.120118 25.7661 0 26.0603 0 26.3667C0 26.673 0.120118 26.9672 0.334584 27.186L4.38245 31.234L1.4074 34.209L0.334584 35.2819C0.120118 35.5007 0 35.7949 0 36.1013C0 36.4077 0.120118 36.7018 0.334584 36.9206L25.5977 62.0863C25.8165 62.3008 26.1107 62.4209 26.4171 62.4209C26.7235 62.4209 27.0175 62.3008 27.2363 62.0863L52.4509 36.8719C52.6653 36.6531 52.7854 36.3589 52.7854 36.0525C52.7854 35.7461 52.6653 35.452 52.4509 35.2332L48.4027 31.1852ZM3.34846 26.3081L26.4171 3.24936L49.4856 26.3081L44.6085 31.1852L26.4074 49.3864L8.206 31.1852L3.34846 26.3081ZM26.4171 59.1113L3.34846 36.0428L6.2747 33.0677L25.5977 52.3517C25.7048 52.4602 25.8323 52.5464 25.973 52.6052C26.1137 52.664 26.2647 52.6943 26.4171 52.6943C26.5696 52.6943 26.7204 52.664 26.861 52.6052C27.0017 52.5464 27.1292 52.4602 27.2363 52.3517L28.3094 51.2787L46.5105 33.0775L49.4367 36.0525L26.4171 59.1113Z" fill="#FA7268"/>
<path d="M42.4817 25.4987L41.4087 24.4258L28.2699 11.2869L27.1968 10.214C26.978 9.99952 26.684 9.87939 26.3776 9.87939C26.0713 9.87939 25.777 9.99952 25.5582 10.214L24.4854 11.2869L11.3366 24.4745L10.2638 25.5475C10.0493 25.7663 9.9292 26.0605 9.9292 26.3668C9.9292 26.6732 10.0493 26.9674 10.2638 27.1862L11.3366 28.2591L24.4854 41.4077L25.5582 42.4807C25.777 42.6951 26.0713 42.8153 26.3776 42.8153C26.684 42.8153 26.978 42.6951 27.1968 42.4807L28.2699 41.4077L41.4087 28.2591L41.5258 28.1421L42.5012 27.1667C42.6106 27.0565 42.6968 26.9256 42.7551 26.7817C42.8134 26.6379 42.8424 26.4838 42.8406 26.3286C42.8388 26.1734 42.8062 26.0201 42.7446 25.8776C42.683 25.7351 42.5936 25.6063 42.4817 25.4987V25.4987ZM26.3776 39.4666L13.2291 26.3181L26.3776 13.1792L39.5164 26.3181L26.3776 39.4666Z" fill="#FA7268"/>
<path d="M32.5146 25.4982L27.1498 20.1334C26.931 19.919 26.6367 19.7988 26.3304 19.7988C26.024 19.7988 25.7297 19.919 25.5109 20.1334L20.1462 25.4982C20.0376 25.6053 19.9516 25.7328 19.8928 25.8735C19.834 26.0141 19.8037 26.1651 19.8037 26.3175C19.8037 26.47 19.834 26.6209 19.8928 26.7616C19.9516 26.9023 20.0376 27.0298 20.1462 27.1369L25.5109 32.5114C25.7297 32.7259 26.024 32.846 26.3304 32.846C26.6367 32.846 26.931 32.7259 27.1498 32.5114L32.5146 27.1369C32.729 26.9181 32.8491 26.6239 32.8491 26.3175C32.8491 26.0112 32.729 25.717 32.5146 25.4982V25.4982ZM26.3304 29.5364L23.1114 26.3175L26.3304 23.0987L29.5493 26.3175L26.3304 29.5364Z" fill="#FA7268"/>
</svg>
