<svg width="85" height="47" viewBox="0 0 85 47" fill="none" xmlns="http://www.w3.org/2000/svg">
  <path
    d="M59.3277 14.7046C60.826 25.0884 54.1383 31.5863 45.8423 31.5863C37.0718 31.5863 29.9595 25.1733 29.9595 15.8834C29.9595 6.59344 37.2016 0.180384 45.8423 0.180384C48.8932 0.130265 51.8955 0.949677 54.4979 2.54283L51.7209 8.40147C50.1189 7.31079 48.2196 6.74048 46.2817 6.76825C40.9126 6.76825 37.2915 10.6041 37.2915 15.8834C37.2915 21.1626 40.7878 24.9985 45.8423 24.9985C49.5533 24.9985 51.9557 23.8647 52.8697 20.6382H46.072L48.9089 14.7046H59.3277ZM84.9998 18.7253V24.8836H81.6284V31.5863H74.3813V24.8836H61.0208V18.7253L74.3813 0.105469H81.6284V18.7253H84.9998ZM68.4428 18.7253H74.3813V9.77498L68.4428 18.7253V18.7253Z"
    fill="#233140" />
  <path
    d="M6.42011 42.2598V43.7582H0.171875V35.6919H6.27024V37.1903H2.02985V38.9384H5.77079V40.3918H2.02985V42.2598H6.42011Z"
    fill="#233140" />
  <path
    d="M10.2104 35.6921H13.8715C14.6741 35.6746 15.4695 35.8457 16.194 36.1916C16.8414 36.5026 17.3859 36.9933 17.7623 37.6051C18.1292 38.2515 18.322 38.982 18.322 39.7253C18.322 40.4685 18.1292 41.1991 17.7623 41.8455C17.3856 42.4558 16.8411 42.9447 16.194 43.2539C15.4695 43.5999 14.6741 43.7709 13.8715 43.7534H10.2104V35.6921ZM13.7817 42.2251C14.4877 42.2607 15.1795 42.0187 15.7095 41.5508C16.1748 41.0569 16.434 40.4039 16.434 39.7253C16.434 39.0467 16.1748 38.3937 15.7095 37.8997C15.1795 37.4319 14.4877 37.1899 13.7817 37.2255H12.0734V42.2201L13.7817 42.2251Z"
    fill="#233140" />
  <path
    d="M22.9265 42.9391C22.5891 42.5727 22.3297 42.1417 22.164 41.672C21.9983 41.2024 21.9298 40.704 21.9626 40.207V35.7119H23.8305V40.1571C23.8305 41.6055 24.4299 42.3247 25.6286 42.3247C25.8759 42.3415 26.1238 42.3032 26.3544 42.2125C26.585 42.1218 26.7926 41.981 26.9621 41.8003C27.3109 41.3269 27.4759 40.743 27.4266 40.1571V35.7119H29.2697V40.207C29.3013 40.7039 29.2322 41.202 29.0666 41.6714C28.9009 42.1409 28.642 42.5721 28.3057 42.9391C27.545 43.5559 26.5954 43.8925 25.6161 43.8925C24.6367 43.8925 23.6872 43.5559 22.9265 42.9391V42.9391Z"
    fill="#233140" />
  <path
    d="M35.0492 43.3583C34.3983 43.013 33.8556 42.4945 33.481 41.86C33.1079 41.2048 32.9116 40.4638 32.9116 39.7098C32.9116 38.9558 33.1079 38.2148 33.481 37.5596C33.8556 36.9251 34.3983 36.4066 35.0492 36.0613C35.7389 35.6995 36.508 35.5158 37.2868 35.5268C37.9381 35.518 38.5843 35.6439 39.1847 35.8964C39.736 36.1323 40.2238 36.4951 40.6082 36.9553L39.4095 38.0641C39.1643 37.7639 38.8549 37.5227 38.5038 37.3584C38.1528 37.1941 37.7693 37.111 37.3818 37.1151C36.9145 37.1072 36.4532 37.2208 36.0431 37.4448C35.6581 37.659 35.3414 37.9776 35.1292 38.3638C34.9048 38.7719 34.791 39.2316 34.7995 39.6973C34.7915 40.1645 34.9052 40.6258 35.1292 41.0359C35.3417 41.4206 35.6584 41.7374 36.0431 41.9499C36.4532 42.1739 36.9145 42.2874 37.3818 42.2795C37.7698 42.2838 38.1537 42.2002 38.5049 42.035C38.8561 41.8698 39.1653 41.6272 39.4095 41.3255L40.6082 42.4294C40.2251 42.8967 39.7351 43.265 39.1797 43.5032C38.577 43.7536 37.9293 43.8777 37.2768 43.8678C36.5032 43.8878 35.7371 43.7126 35.0492 43.3583V43.3583Z"
    fill="#233140" />
  <path
    d="M49.3184 42.03H45.5725L44.8583 43.7582H42.9453L46.5414 35.6919H48.3844L51.9906 43.7582H50.0326L49.3184 42.03ZM48.7291 40.6116L47.4504 37.5249L46.1718 40.6116H48.7291Z"
    fill="#233140" />
  <path
    d="M56.6556 43.3583C56.0047 43.013 55.462 42.4945 55.0874 41.86C54.7143 41.2048 54.5181 40.4638 54.5181 39.7098C54.5181 38.9558 54.7143 38.2148 55.0874 37.5596C55.462 36.9251 56.0047 36.4066 56.6556 36.0613C57.3453 35.6995 58.1145 35.5158 58.8932 35.5268C59.5446 35.518 60.1907 35.6439 60.7912 35.8964C61.3424 36.1323 61.8302 36.4951 62.2147 36.9553L61.0159 38.0641C60.7708 37.7639 60.4613 37.5227 60.1103 37.3584C59.7592 37.1941 59.3757 37.111 58.9882 37.1151C58.521 37.1072 58.0597 37.2208 57.6496 37.4448C57.2645 37.659 56.9478 37.9776 56.7356 38.3638C56.5112 38.7719 56.3975 39.2316 56.4059 39.6973C56.398 40.1645 56.5117 40.6258 56.7356 41.0359C56.9481 41.4206 57.2649 41.7374 57.6496 41.9499C58.0597 42.1739 58.521 42.2874 58.9882 42.2795C59.3763 42.2838 59.7602 42.2002 60.1114 42.035C60.4625 41.8698 60.7718 41.6272 61.0159 41.3255L62.2147 42.4294C61.8316 42.8967 61.3416 43.265 60.7862 43.5032C60.1835 43.7536 59.5358 43.8777 58.8832 43.8678C58.1097 43.8878 57.3436 43.7126 56.6556 43.3583V43.3583ZM57.6546 46.3551C57.4796 46.3247 57.3108 46.2657 57.1551 46.1803L57.4298 45.4061C57.6639 45.5182 57.9195 45.5779 58.179 45.5809C58.5786 45.5809 58.7783 45.4561 58.7783 45.2113C58.7783 44.9666 58.5936 44.8767 58.214 44.8767H57.8244L58.124 43.653H59.0781L58.9182 44.3223C59.1995 44.3361 59.4668 44.4494 59.6724 44.642C59.7545 44.7265 59.819 44.8266 59.8619 44.9364C59.9048 45.0462 59.9252 45.1634 59.9221 45.2813C59.9248 45.4488 59.8833 45.6142 59.8018 45.7606C59.7202 45.907 59.6015 46.0294 59.4577 46.1154C59.0874 46.3366 58.6597 46.4427 58.229 46.42C58.0428 46.4219 57.8568 46.4035 57.6746 46.3651L57.6546 46.3551Z"
    fill="#233140" />
  <path
    d="M70.9249 42.0301H67.1789L66.4647 43.7582H64.5518L68.1478 35.692H69.9908L73.597 43.7582H71.639L70.9249 42.0301ZM69.3865 34.9478C69.2126 34.8496 69.0457 34.7395 68.887 34.6182C68.789 34.5448 68.6874 34.4764 68.5824 34.4134C68.5124 34.3683 68.431 34.344 68.3477 34.3434C68.2738 34.34 68.2001 34.353 68.1319 34.3815C68.0636 34.41 68.0026 34.4533 67.9531 34.5083C67.8393 34.6489 67.7823 34.8271 67.7932 35.0077H66.8842C66.8759 34.5673 67.0109 34.1361 67.2688 33.7791C67.4456 33.5644 67.6891 33.4149 67.9605 33.3542C68.232 33.2936 68.5158 33.3254 68.7672 33.4444C68.9523 33.5462 69.1308 33.6597 69.3016 33.7841C69.3985 33.8605 69.5004 33.9305 69.6063 33.9938C69.679 34.0371 69.7615 34.0611 69.8461 34.0638C69.9187 34.0651 69.9906 34.0506 70.057 34.0213C70.1234 33.992 70.1828 33.9485 70.2307 33.8939C70.3416 33.769 70.4005 33.6064 70.3954 33.4394H71.3094C71.3172 33.8713 71.18 34.2933 70.9199 34.6381C70.807 34.7836 70.6611 34.9002 70.4944 34.9783C70.3277 35.0564 70.1449 35.0939 69.9609 35.0876C69.7608 35.0895 69.5633 35.0414 69.3865 34.9478V34.9478ZM70.3355 40.6117L69.0469 37.505L67.7682 40.5917L70.3355 40.6117Z"
    fill="#233140" />
  <path
    d="M78.2715 43.3537C77.6169 43.0099 77.0706 42.4912 76.6932 41.8553C76.3199 41.2047 76.1235 40.4677 76.1235 39.7176C76.1235 38.9675 76.3199 38.2305 76.6932 37.5799C77.0718 36.945 77.6178 36.4266 78.2715 36.0816C78.9689 35.7158 79.7467 35.5304 80.534 35.5421C81.32 35.5291 82.0965 35.7146 82.7916 36.0816C83.451 36.4314 84.0027 36.9543 84.3874 37.594C84.7722 38.2337 84.9755 38.9661 84.9755 39.7126C84.9755 40.4591 84.7722 41.1915 84.3874 41.8312C84.0027 42.4709 83.451 42.9938 82.7916 43.3437C82.0965 43.7106 81.32 43.8962 80.534 43.8831C79.7475 43.8979 78.9698 43.7159 78.2715 43.3537V43.3537ZM81.8277 41.9752C82.2085 41.761 82.5216 41.4443 82.7316 41.0612C82.9556 40.6511 83.0693 40.1898 83.0613 39.7226C83.0698 39.2569 82.956 38.7972 82.7316 38.3891C82.5217 38.0045 82.2087 37.6862 81.8277 37.4701C81.4318 37.2537 80.9877 37.1403 80.5365 37.1403C80.0853 37.1403 79.6413 37.2537 79.2454 37.4701C78.8644 37.6862 78.5514 38.0045 78.3415 38.3891C78.117 38.7972 78.0033 39.2569 78.0117 39.7226C78.0038 40.1898 78.1175 40.6511 78.3415 41.0612C78.5515 41.4443 78.8646 41.761 79.2454 41.9752C79.6413 42.1916 80.0853 42.305 80.5365 42.305C80.9877 42.305 81.4318 42.1916 81.8277 41.9752V41.9752Z"
    fill="#233140" />
  <path
    d="M24.7845 15.9683L26.2829 14.4699L26.8324 13.9205C26.9422 13.8085 27.0037 13.6579 27.0037 13.501C27.0037 13.3441 26.9422 13.1935 26.8324 13.0815L13.9213 0.175442C13.8665 0.11987 13.8013 0.0757416 13.7293 0.0456239C13.6572 0.0155062 13.5799 0 13.5018 0C13.4238 0 13.3464 0.0155062 13.2744 0.0456239C13.2024 0.0757416 13.1371 0.11987 13.0823 0.175442L0.171323 13.0815C0.061506 13.1935 0 13.3441 0 13.501C0 13.6579 0.061506 13.8085 0.171323 13.9205L2.24403 15.9933L0.720654 17.5166L0.171323 18.066C0.061506 18.1781 0 18.3287 0 18.4856C0 18.6425 0.061506 18.7931 0.171323 18.9051L13.1072 31.7912C13.2193 31.901 13.37 31.9625 13.5268 31.9625C13.6837 31.9625 13.8343 31.901 13.9463 31.7912L26.8574 18.8802C26.9672 18.7681 27.0287 18.6175 27.0287 18.4606C27.0287 18.3037 26.9672 18.1531 26.8574 18.0411L24.7845 15.9683ZM1.71457 13.471L13.5268 1.66383L25.339 13.471L22.8417 15.9683L13.5218 25.2882L4.20187 15.9683L1.71457 13.471ZM13.5268 30.2678L1.71457 18.4556L3.21295 16.9323L13.1072 26.8066C13.1621 26.8621 13.2274 26.9063 13.2994 26.9364C13.3714 26.9665 13.4488 26.982 13.5268 26.982C13.6049 26.982 13.6821 26.9665 13.7541 26.9364C13.8262 26.9063 13.8915 26.8621 13.9463 26.8066L14.4958 26.2572L23.8156 16.9373L25.314 18.4606L13.5268 30.2678Z"
    fill="#FA7268" />
  <path
    d="M21.7529 13.0564L21.2035 12.507L14.4758 5.77933L13.9263 5.22992C13.8143 5.1201 13.6637 5.05859 13.5069 5.05859C13.35 5.05859 13.1993 5.1201 13.0873 5.22992L12.5379 5.77933L5.80513 12.532L5.2558 13.0814C5.14598 13.1934 5.08447 13.3441 5.08447 13.501C5.08447 13.6578 5.14598 13.8085 5.2558 13.9205L5.80513 14.4699L12.5379 21.2026L13.0873 21.752C13.1993 21.8618 13.35 21.9233 13.5069 21.9233C13.6637 21.9233 13.8143 21.8618 13.9263 21.752L14.4758 21.2026L21.2035 14.4699L21.2635 14.41L21.7629 13.9105C21.8189 13.8541 21.8631 13.7871 21.8929 13.7134C21.9228 13.6397 21.9376 13.5609 21.9367 13.4814C21.9358 13.4019 21.9191 13.3234 21.8875 13.2504C21.856 13.1775 21.8102 13.1115 21.7529 13.0564V13.0564ZM13.5069 20.2087L6.77417 13.476L13.5069 6.74827L20.2346 13.476L13.5069 20.2087Z"
    fill="#FA7268" />
  <path
    d="M16.6487 13.0565L13.9017 10.3095C13.7896 10.1997 13.639 10.1382 13.4821 10.1382C13.3252 10.1382 13.1745 10.1997 13.0625 10.3095L10.3155 13.0565C10.2599 13.1114 10.2159 13.1767 10.1857 13.2487C10.1556 13.3207 10.1401 13.398 10.1401 13.4761C10.1401 13.5541 10.1556 13.6314 10.1857 13.7035C10.2159 13.7755 10.2599 13.8408 10.3155 13.8956L13.0625 16.6476C13.1745 16.7575 13.3252 16.819 13.4821 16.819C13.639 16.819 13.7896 16.7575 13.9017 16.6476L16.6487 13.8956C16.7585 13.7836 16.82 13.633 16.82 13.4761C16.82 13.3192 16.7585 13.1686 16.6487 13.0565V13.0565ZM13.4821 15.1243L11.8339 13.4761L13.4821 11.8279L15.1303 13.4761L13.4821 15.1243Z"
    fill="#FA7268" />
</svg>
